<svg width="15" height="13" viewBox="0 0 15 13" fill="none" xmlns="http://www.w3.org/2000/svg">
<path d="M14.2677 6.14675V5.86107C14.2677 5.33481 13.9953 4.87125 13.5842 4.60318V1.48693C13.5842 0.667031 12.9172 0 12.0973 0H2.90271C2.0828 0 1.41574 0.667031 1.41574 1.48693V4.60315C1.00471 4.87122 0.732246 5.33478 0.732246 5.86104V6.14672C0.311367 6.25755 0 6.64134 0 7.09655V10.4392C0 10.9651 0.415488 11.3957 0.93542 11.4201V11.8157C0.93542 12.0579 1.1318 12.2543 1.37402 12.2543C1.61625 12.2543 1.81263 12.0579 1.81263 11.8157V11.4213H13.1873V11.8157C13.1873 12.0579 13.3837 12.2543 13.6259 12.2543C13.8682 12.2543 14.0646 12.0579 14.0646 11.8157V11.4201C14.5845 11.3956 15 10.9651 15 10.4392V7.09655C15 6.64131 14.6886 6.25755 14.2677 6.14675ZM2.29298 1.48693C2.29298 1.15072 2.56649 0.877207 2.90271 0.877207H12.0973C12.4335 0.877207 12.707 1.15072 12.707 1.48693V4.35999H12.1222V3.5869C12.1222 3.04579 11.682 2.60555 11.1408 2.60555H8.78074C8.23963 2.60555 7.79938 3.04579 7.79938 3.5869V4.35999H7.20062V3.5869C7.20062 3.04579 6.76037 2.60555 6.21926 2.60555H3.85916C3.31802 2.60555 2.8778 3.04579 2.8778 3.5869V4.35999H2.29298V1.48693ZM11.245 3.58687V4.25584C11.245 4.31326 11.1982 4.35996 11.1408 4.35996H8.78074C8.72332 4.35996 8.67662 4.31323 8.67662 4.25584V3.58687C8.67662 3.52945 8.72335 3.48275 8.78074 3.48275H11.1408C11.1983 3.48275 11.245 3.52945 11.245 3.58687ZM6.32338 3.58687V4.25584C6.32338 4.31326 6.27665 4.35996 6.21926 4.35996H3.85916C3.80174 4.35996 3.75504 4.31323 3.75504 4.25584V3.58687C3.75504 3.52945 3.80177 3.48275 3.85916 3.48275H6.21926C6.27665 3.48275 6.32338 3.52945 6.32338 3.58687ZM1.60948 5.86104C1.60948 5.51704 1.88936 5.2372 2.23336 5.2372H12.7666C13.1106 5.2372 13.3905 5.51707 13.3905 5.86104V6.1144H1.60948V5.86104ZM14.1228 10.4392C14.1228 10.497 14.0757 10.5441 14.0179 10.5441H0.982119C0.924287 10.5441 0.877207 10.497 0.877207 10.4392V7.09655C0.877207 7.03872 0.924258 6.99167 0.982119 6.99167H14.0179C14.0757 6.99167 14.1228 7.03872 14.1228 7.09655V10.4392H14.1228Z" fill="#EA9635"/>
</svg>
