<svg width="564" height="150" viewBox="0 0 564 150" fill="none" xmlns="http://www.w3.org/2000/svg">
<g clip-path="url(#clip0_1_2)">
<path d="M168.679 124.205L162.585 146.844H160.591L166.685 124.205H168.679Z" fill="black"/>
<path d="M403.679 122.205L397.585 144.844H395.591L401.685 122.205H403.679Z" fill="black"/>
<path d="M180.597 147.219V140.767H181.747C182.139 140.437 182.506 139.969 182.847 139.361C183.188 138.753 183.477 137.932 183.716 136.898C183.955 135.864 184.119 134.537 184.21 132.918L184.619 125.545H195.384V140.767H197.361V147.193H194.838V143H183.119V147.219H180.597ZM184.849 140.767H192.861V127.812H187.006L186.733 132.918C186.659 134.151 186.537 135.259 186.366 136.241C186.202 137.224 185.989 138.094 185.727 138.849C185.472 139.599 185.179 140.239 184.849 140.767ZM215.888 134.273C215.888 136.136 215.547 137.739 214.865 139.08C214.183 140.415 213.248 141.443 212.061 142.165C210.879 142.881 209.535 143.239 208.03 143.239C206.518 143.239 205.169 142.881 203.981 142.165C202.8 141.443 201.868 140.412 201.186 139.071C200.504 137.73 200.163 136.131 200.163 134.273C200.163 132.409 200.504 130.81 201.186 129.474C201.868 128.134 202.8 127.105 203.981 126.389C205.169 125.668 206.518 125.307 208.03 125.307C209.535 125.307 210.879 125.668 212.061 126.389C213.248 127.105 214.183 128.134 214.865 129.474C215.547 130.81 215.888 132.409 215.888 134.273ZM213.28 134.273C213.28 132.852 213.05 131.656 212.589 130.685C212.135 129.707 211.51 128.969 210.714 128.469C209.925 127.963 209.03 127.71 208.03 127.71C207.024 127.71 206.126 127.963 205.337 128.469C204.547 128.969 203.922 129.707 203.462 130.685C203.007 131.656 202.78 132.852 202.78 134.273C202.78 135.693 203.007 136.892 203.462 137.869C203.922 138.841 204.547 139.58 205.337 140.085C206.126 140.585 207.024 140.835 208.03 140.835C209.03 140.835 209.925 140.585 210.714 140.085C211.51 139.58 212.135 138.841 212.589 137.869C213.05 136.892 213.28 135.693 213.28 134.273ZM219.651 125.545H222.847L228.404 139.114H228.608L234.165 125.545H237.361V143H234.856V130.369H234.694L229.546 142.974H227.466L222.319 130.361H222.157V143H219.651V125.545ZM262.147 125.545V143H259.522V127.795H251.306V143H248.681V125.545H262.147ZM281.815 134.273C281.815 136.136 281.475 137.739 280.793 139.08C280.111 140.415 279.176 141.443 277.989 142.165C276.807 142.881 275.463 143.239 273.958 143.239C272.446 143.239 271.097 142.881 269.909 142.165C268.727 141.443 267.796 140.412 267.114 139.071C266.432 137.73 266.091 136.131 266.091 134.273C266.091 132.409 266.432 130.81 267.114 129.474C267.796 128.134 268.727 127.105 269.909 126.389C271.097 125.668 272.446 125.307 273.958 125.307C275.463 125.307 276.807 125.668 277.989 126.389C279.176 127.105 280.111 128.134 280.793 129.474C281.475 130.81 281.815 132.409 281.815 134.273ZM279.208 134.273C279.208 132.852 278.977 131.656 278.517 130.685C278.063 129.707 277.438 128.969 276.642 128.469C275.852 127.963 274.958 127.71 273.958 127.71C272.952 127.71 272.054 127.963 271.264 128.469C270.475 128.969 269.85 129.707 269.389 130.685C268.935 131.656 268.708 132.852 268.708 134.273C268.708 135.693 268.935 136.892 269.389 137.869C269.85 138.841 270.475 139.58 271.264 140.085C272.054 140.585 272.952 140.835 273.958 140.835C274.958 140.835 275.852 140.585 276.642 140.085C277.438 139.58 278.063 138.841 278.517 137.869C278.977 136.892 279.208 135.693 279.208 134.273ZM284.258 147.219V140.767H285.408C285.8 140.437 286.167 139.969 286.508 139.361C286.849 138.753 287.139 137.932 287.377 136.898C287.616 135.864 287.781 134.537 287.871 132.918L288.281 125.545H299.045V140.767H301.022V147.193H298.499V143H286.781V147.219H284.258ZM288.511 140.767H296.522V127.812H290.667L290.394 132.918C290.32 134.151 290.198 135.259 290.028 136.241C289.863 137.224 289.65 138.094 289.389 138.849C289.133 139.599 288.84 140.239 288.511 140.767ZM321.574 143L315.71 135.176H313.852V143H311.219V125.545H313.852V132.918H314.713L321.309 125.545H324.523L317.542 133.361L324.787 143H321.574ZM326.385 143V140.716L326.897 140.699C327.59 140.682 328.135 140.446 328.533 139.991C328.936 139.537 329.229 138.804 329.411 137.793C329.598 136.781 329.723 135.432 329.786 133.744L330.084 125.545H341.121V143H338.522V127.778H332.564L332.292 134.443C332.218 136.312 332.03 137.884 331.729 139.156C331.428 140.423 330.917 141.381 330.195 142.028C329.479 142.676 328.459 143 327.135 143H326.385ZM348.07 125.545V143H345.436V125.545H348.07ZM351.863 133.378V135.585H346.451V133.378H351.863ZM366.794 134.273C366.794 136.136 366.453 137.739 365.772 139.08C365.09 140.415 364.155 141.443 362.968 142.165C361.786 142.881 360.442 143.239 358.936 143.239C357.425 143.239 356.076 142.881 354.888 142.165C353.706 141.443 352.774 140.412 352.093 139.071C351.411 137.73 351.07 136.131 351.07 134.273C351.07 132.409 351.411 130.81 352.093 129.474C352.774 128.134 353.706 127.105 354.888 126.389C356.076 125.668 357.425 125.307 358.936 125.307C360.442 125.307 361.786 125.668 362.968 126.389C364.155 127.105 365.09 128.134 365.772 129.474C366.453 130.81 366.794 132.409 366.794 134.273ZM364.186 134.273C364.186 132.852 363.956 131.656 363.496 130.685C363.041 129.707 362.416 128.969 361.621 128.469C360.831 127.963 359.936 127.71 358.936 127.71C357.931 127.71 357.033 127.963 356.243 128.469C355.453 128.969 354.828 129.707 354.368 130.685C353.914 131.656 353.686 132.852 353.686 134.273C353.686 135.693 353.914 136.892 354.368 137.869C354.828 138.841 355.453 139.58 356.243 140.085C357.033 140.585 357.931 140.835 358.936 140.835C359.936 140.835 360.831 140.585 361.621 140.085C362.416 139.58 363.041 138.841 363.496 137.869C363.956 136.892 364.186 135.693 364.186 134.273ZM370.899 125.545H373.498V131.307C373.498 132.108 373.637 132.741 373.916 133.207C374.194 133.668 374.597 133.994 375.126 134.188C375.66 134.381 376.308 134.477 377.069 134.477C377.472 134.477 377.882 134.463 378.296 134.435C378.717 134.401 379.134 134.355 379.549 134.298C379.964 134.236 380.365 134.165 380.751 134.085C381.143 134 381.507 133.906 381.842 133.804V136.045C381.512 136.153 381.163 136.25 380.793 136.335C380.43 136.415 380.049 136.486 379.651 136.548C379.254 136.605 378.839 136.651 378.407 136.685C377.975 136.719 377.529 136.736 377.069 136.736C375.796 136.736 374.697 136.554 373.771 136.19C372.85 135.821 372.14 135.239 371.64 134.443C371.146 133.648 370.899 132.602 370.899 131.307V125.545ZM381.45 125.545H384.058V143H381.45V125.545Z" fill="black"/>
<path d="M51.3182 0H312L260.669 107H2L51.3182 0Z" fill="#FF9C00"/>
<path d="M314 0H563L513.325 107H263L314 0Z" fill="#434242"/>
<path d="M68.7045 33.3636H73.3068L86.2401 54.0739H86.6236L99.5568 33.3636H104.159L88.4134 58.1009V77H84.4503V58.1009L68.7045 33.3636ZM151.366 55.1818C151.366 59.7273 150.557 63.6832 148.938 67.0497C147.318 70.402 145.088 73.0014 142.247 74.848C139.42 76.6804 136.168 77.5966 132.489 77.5966C128.81 77.5966 125.55 76.6804 122.709 74.848C119.882 73.0014 117.659 70.402 116.04 67.0497C114.435 63.6832 113.632 59.7273 113.632 55.1818C113.632 50.6364 114.435 46.6875 116.04 43.3352C117.659 39.9687 119.889 37.3693 122.73 35.5369C125.571 33.6903 128.824 32.767 132.489 32.767C136.168 32.767 139.42 33.6903 142.247 35.5369C145.088 37.3693 147.318 39.9687 148.938 43.3352C150.557 46.6875 151.366 50.6364 151.366 55.1818ZM147.489 55.1818C147.489 51.2756 146.835 47.9304 145.528 45.1463C144.222 42.348 142.439 40.2102 140.18 38.733C137.922 37.2557 135.358 36.517 132.489 36.517C129.634 36.517 127.077 37.2557 124.818 38.733C122.56 40.2102 120.77 42.3409 119.449 45.125C118.142 47.9091 117.489 51.2614 117.489 55.1818C117.489 59.0881 118.142 62.4332 119.449 65.2173C120.756 68.0014 122.538 70.1392 124.797 71.6307C127.055 73.108 129.619 73.8466 132.489 73.8466C135.358 73.8466 137.922 73.108 140.18 71.6307C142.453 70.1534 144.243 68.0227 145.55 65.2386C146.857 62.4403 147.503 59.0881 147.489 55.1818ZM167.002 77V33.3636H170.987V73.4205H191.782V77H167.002ZM240.827 55.1818C240.827 59.7273 240.018 63.6832 238.398 67.0497C236.779 70.402 234.549 73.0014 231.708 74.848C228.881 76.6804 225.629 77.5966 221.95 77.5966C218.271 77.5966 215.011 76.6804 212.17 74.848C209.343 73.0014 207.12 70.402 205.501 67.0497C203.896 63.6832 203.093 59.7273 203.093 55.1818C203.093 50.6364 203.896 46.6875 205.501 43.3352C207.12 39.9687 209.35 37.3693 212.191 35.5369C215.032 33.6903 218.285 32.767 221.95 32.767C225.629 32.767 228.881 33.6903 231.708 35.5369C234.549 37.3693 236.779 39.9687 238.398 43.3352C240.018 46.6875 240.827 50.6364 240.827 55.1818ZM236.95 55.1818C236.95 51.2756 236.296 47.9304 234.989 45.1463C233.683 42.348 231.9 40.2102 229.641 38.733C227.383 37.2557 224.819 36.517 221.95 36.517C219.094 36.517 216.538 37.2557 214.279 38.733C212.021 40.2102 210.231 42.3409 208.91 45.125C207.603 47.9091 206.95 51.2614 206.95 55.1818C206.95 59.0881 207.603 62.4332 208.91 65.2173C210.217 68.0014 211.999 70.1392 214.258 71.6307C216.516 73.108 219.08 73.8466 221.95 73.8466C224.819 73.8466 227.383 73.108 229.641 71.6307C231.914 70.1534 233.704 68.0227 235.011 65.2386C236.317 62.4403 236.964 59.0881 236.95 55.1818Z" fill="#434242"/>
<path d="M333.795 77V33.3636H337.78V53.3707H362.538V33.3636H366.523V77H362.538V56.9503H337.78V77H333.795ZM382.956 77H378.78L394.654 33.3636H398.915L414.789 77H410.612L396.934 38.5412H396.635L382.956 77ZM385.961 60.2741H407.608V63.8537H385.961V60.2741ZM456.151 33.3636H460.136V62.2557C460.136 65.2244 459.439 67.8807 458.047 70.2244C456.655 72.554 454.716 74.3935 452.231 75.7429C449.759 77.0781 446.883 77.7457 443.601 77.7457C440.334 77.7457 437.458 77.071 434.972 75.7216C432.486 74.3722 430.547 72.5327 429.155 70.2031C427.763 67.8736 427.067 65.2244 427.067 62.2557V33.3636H431.052V61.9787C431.052 64.294 431.57 66.3608 432.607 68.179C433.644 69.983 435.1 71.4034 436.975 72.4403C438.864 73.4773 441.073 73.9957 443.601 73.9957C446.13 73.9957 448.339 73.4773 450.228 72.4403C452.117 71.4034 453.573 69.983 454.596 68.179C455.633 66.3608 456.151 64.294 456.151 61.9787V33.3636ZM500.209 44.2727C499.967 41.8437 498.895 39.9119 496.992 38.4773C495.088 37.0426 492.695 36.3253 489.811 36.3253C487.78 36.3253 485.99 36.6733 484.442 37.3693C482.908 38.0653 481.7 39.0312 480.82 40.267C479.953 41.4886 479.52 42.8807 479.52 44.4432C479.52 45.5938 479.769 46.6023 480.266 47.4688C480.763 48.3352 481.431 49.081 482.269 49.706C483.121 50.3168 484.058 50.8423 485.081 51.2827C486.118 51.723 487.162 52.0923 488.213 52.3906L492.815 53.7116C494.208 54.0952 495.6 54.5852 496.992 55.1818C498.384 55.7784 499.655 56.5312 500.806 57.4403C501.97 58.3352 502.901 59.4361 503.597 60.7429C504.307 62.0355 504.662 63.5909 504.662 65.4091C504.662 67.7386 504.058 69.8338 502.851 71.6946C501.644 73.5554 499.911 75.0327 497.652 76.1264C495.394 77.206 492.688 77.7457 489.534 77.7457C486.565 77.7457 483.987 77.2557 481.8 76.2756C479.612 75.2812 477.894 73.9105 476.644 72.1634C475.394 70.4162 474.69 68.392 474.534 66.0909H478.625C478.767 67.8097 479.335 69.2656 480.33 70.4588C481.324 71.652 482.617 72.5611 484.208 73.1861C485.798 73.7969 487.574 74.1023 489.534 74.1023C491.708 74.1023 493.639 73.7401 495.33 73.0156C497.034 72.277 498.369 71.2543 499.335 69.9474C500.315 68.6264 500.806 67.0923 500.806 65.3452C500.806 63.8679 500.422 62.6321 499.655 61.6378C498.888 60.6293 497.815 59.7841 496.438 59.1023C495.074 58.4205 493.49 57.8168 491.686 57.2912L486.466 55.7571C483.043 54.7344 480.386 53.321 478.497 51.517C476.608 49.7131 475.663 47.4119 475.663 44.6136C475.663 42.2699 476.288 40.2102 477.538 38.4347C478.803 36.6449 480.507 35.2528 482.652 34.2585C484.811 33.25 487.233 32.7457 489.918 32.7457C492.631 32.7457 495.031 33.2429 497.119 34.2372C499.208 35.2315 500.862 36.6023 502.084 38.3494C503.32 40.0824 503.98 42.0568 504.065 44.2727H500.209Z" fill="#FF9D00"/>
</g>
<defs>
<clipPath id="clip0_1_2">
<rect width="564" height="150" fill="white"/>
</clipPath>
</defs>
</svg>
