<svg width="147" height="111" viewBox="0 0 147 111" fill="none" xmlns="http://www.w3.org/2000/svg">
<path opacity="0.1" d="M147 14.8C136.811 19.045 128.453 24.3225 121.928 30.6326C115.402 36.9426 112.139 42.507 112.139 47.3256C112.139 49.6202 115.974 52.0295 123.645 54.5535C125.935 55.3566 127.766 55.9876 129.14 56.4465C133.72 58.0527 137.326 60.9783 139.959 65.2233C142.592 69.3535 143.909 74.2868 143.909 80.0233C143.909 89.3163 141.276 96.831 136.009 102.567C130.743 108.189 123.874 111 115.402 111C106.014 111 98.229 107.501 92.0467 100.502C85.979 93.3892 82.9451 84.3256 82.9451 73.3116C82.9451 55.9876 88.3259 40.8434 99.0876 27.8791C109.849 14.9147 124.79 5.62171 143.909 0L147 14.8ZM64.0549 14.8C53.8657 19.045 45.5082 24.3225 38.9825 30.6326C32.4568 36.9426 29.1939 42.507 29.1939 47.3256C29.1939 49.6202 32.972 52.0295 40.528 54.5535C42.9322 55.3566 44.764 55.9876 46.0234 56.4465C50.6028 58.0527 54.2091 60.9783 56.8423 65.2233C59.4755 69.3535 60.7921 74.2868 60.7921 80.0233C60.7921 89.3163 58.1589 96.831 52.8925 102.567C47.7407 108.189 40.8715 111 32.285 111C23.0117 111 15.2839 107.501 9.10163 100.502C3.03388 93.3892 0 84.3256 0 73.3116C0 55.9876 5.38084 40.8434 16.1425 27.8791C26.9042 14.9147 41.7874 5.62171 60.7921 0L64.0549 14.8Z" fill="white"/>
</svg>
