<svg width="14" height="14" viewBox="0 0 14 14" fill="none" xmlns="http://www.w3.org/2000/svg">
<path d="M9.97928 3.28601H0.696239C0.311649 3.28601 0 3.5976 0 3.98222V13.2653C0 13.6499 0.311649 13.9615 0.696239 13.9615H9.97928C10.3639 13.9615 10.6755 13.6499 10.6755 13.2653V3.98222C10.6755 3.5976 10.3639 3.28601 9.97928 3.28601ZM9.28304 12.569H1.39245V4.67843H9.28304V12.569Z" fill="#EA9635"/>
<path d="M13.8617 11.7129H13.1066V3.58748H13.8617C13.9175 3.58748 13.9678 3.55393 13.9891 3.50229C14.0106 3.45063 13.9989 3.39144 13.9592 3.35182L12.7401 2.13274C12.6862 2.0788 12.5987 2.0788 12.5448 2.13274L11.3257 3.35182C11.286 3.39147 11.2743 3.45063 11.2958 3.50229C11.3171 3.55393 11.3674 3.58748 11.4232 3.58748H12.1783V11.7129H11.4232C11.3674 11.7129 11.3171 11.7464 11.2958 11.7981C11.2743 11.8498 11.286 11.9089 11.3257 11.9486L12.5448 13.1677C12.5987 13.2216 12.6862 13.2216 12.7401 13.1677L13.9592 11.9486C13.9989 11.9089 14.0107 11.8498 13.9891 11.7981C13.9678 11.7464 13.9175 11.7129 13.8617 11.7129Z" fill="#EA9635"/>
<path d="M2.01293 2.67408C2.05258 2.71373 2.11173 2.72552 2.16343 2.70399C2.21509 2.68271 2.24865 2.63238 2.24865 2.57661V1.82147H10.374V2.57661C10.374 2.63238 10.4076 2.68271 10.4592 2.70399C10.5109 2.72552 10.5701 2.71373 10.6097 2.67408L11.8288 1.455C11.8828 1.40103 11.8828 1.31353 11.8288 1.25961L10.6097 0.0405604C10.5701 0.000885193 10.5109 -0.0109063 10.4592 0.010626C10.4076 0.0319304 10.374 0.0822294 10.374 0.137997V0.893194H2.24865V0.137997C2.24865 0.0822579 2.21512 0.0319304 2.16343 0.010626C2.11176 -0.0109063 2.05258 0.000885193 2.01293 0.0405604L0.793876 1.25961C0.739932 1.31353 0.739932 1.40103 0.793876 1.455L2.01293 2.67408Z" fill="#EA9635"/>
</svg>
